/* XPM */
static char *_4878e8f8f9747dda298764c37559982Ekf3EGeRi0hClXDU[] = {
/* columns rows colors chars-per-pixel */
"55 55 7 1 ",
"  c #3F4F91",
". c #6F81C7",
"X c #AED581",
"o c #B0B9E8",
"O c #C5CAE9",
"+ c #CFE8FA",
"@ c #E3F2FD",
/* pixels */
"XXXXXXXXXXXXXXXXXXXXXXXXXXXXXXXXXXXXXXXXXXXXXXXXXXXXXXX",
"XXXXXXXXXXXXXXXXXXXXXXXXXXXXXXXXXXXXXXXXXXXXXXXXXXXXXXX",
"XXXXXXXXXXXXXXXXXXXXXXXXXXXXXXXXXXXXXXXXXXXXXXXXXXXXXXX",
"XXXXXXXXXXXXXXXXXXXXXXXXXXXXXXXXXXXXXXXXXXXXXXXXXXXXXXX",
"XXXXXXXXXXXXXXXXXXXXXXXXXXXXXXXXXXXXXXXXXXXXXXXXXXXXXXX",
"XXXXXXXXXXXXXXXXXXXXXXXXXXX@@XXXXXXXXXXXXXXXXXXXXXXXXXX",
"XXXXXXXXXXXXXXXXXXXXXXXXXXX@O@XXXXXXXXXXXXXXXXXXXXXXXXX",
"XXXXXXXXXXXXXXXXXXXXXXXXXX@@OO@XXXXXXXXXXXXXXXXXXXXXXXX",
"XXXXXXXXXXXXXXXXXXXXXXXXX@@OOO@XXXXXXXXXXXXXXXXXXXXXXXX",
"XXXXXXXXXXXXXXXXXXXXXXXXX@OOO@@XXXXXXXXXXXXXXXXXXXXXXXX",
"XXXXXXXXXXXXXXXXXXXXXXXXX@OOO@XXXXXXXXXXXXXXXXXXXXXXXXX",
"XXXXXXXXXXXXXXXXXXXXXXXX@@OOO@XXXXXXXXXXXXXXXXXXXXXXXXX",
"XXXXXXXXXXXXXXXXXXXXXXX@@OOoO@XXXXXXXXXXXXXXXXXXXXXXXXX",
"XXXXXXXXXXXXXXXXXXXXXXX@OOooO@@XXXXXXXXXXXXXXXXXXXXXXXX",
"XXXXXXXXXXXXXXXXXXXXXX@@OoooOO@@XXXXXXXXXXXXXXXXXXXXXXX",
"XXXXXXXXXXXXXXXXXXXXXX@OOo.ooO@@XXXXXXXXXXXXXXXXXXXXXXX",
"XXXXXXXXXXXXXXXXXXXXXX@Oo...oOO@XXXXXXXXXXXXXXXXXXXXXXX",
"XXXXXXXXXXXXXXXXXXXXXX@Oo. .ooO@XXXXXXXXXXXXXXXXXXXXXXX",
"XXXXXXXXXXXXXXXXXXXXXX@Oo....oO@XXXXXXXXXXXXXXXXXXXXXXX",
"XXXXXXXXXXXXXXXXXXXXXX@Ooo. .oO@XXXXXXXXXXXXXXXXXXXXXXX",
"XXXXXXXXXXXXXXXXXXXXXX@Ooo. .oO@XXXXXXXXXXXXXXXXXXXXXXX",
"XXXXXXXXXXXXXXXXXXXXX@@Oo.. .oO@XXXXXXXXXXXXXXXXXXXXXXX",
"XXXXXXXXXXXXXXXXXXXXX@@Oo.  .oO@XXXXXXXXXXXXXXXXXXXXXXX",
"XXXXXXXXXXXXXXXXXXXXX@Ooo.  .oOOXXXXXXXXXXXXXXXXXXXXXXX",
"XXXXXXXXXXXXXXXXXXXX@@oo.. ..ooO@XXXXXXXXXXXXXXXXXXXXXX",
"XXXXXXXXXXXXXXXXXXX@@Oo..  ..ooO@XXXXXXXXXXXXXXXXXXXXXX",
"XXXXXXXXXXXXXXXXXXX@Ooo.   ..ooO@XXXXXXXXXXXXXXXXXXXXXX",
"XXXXXXXXXXXXXXXXXXX@Oo.. . ..ooO@XXXXXXXXXXXXXXXXXXXXXX",
"XXXXXXXXXXXXXXXXX@@@Oo.  .  ..oO@@XXXXXXXXXXXXXXXXXXXXX",
"XXXXXXXXXXXXXXXX@@@Oo.   .  ..oOO@@XXXXXXXXXXXXXXXXXXXX",
"XXXXXXXXXXXXXXXX@@OOo.   ..  .ooO@@XXXXXXXXXXXXXXXXXXXX",
"XXXXXXXXXXXXXXXX@OOo..  .o.  .ooOO@XXXXXXXXXXXXXXXXXXXX",
"XXXXXXXXXXXXXXXX@OOo.  .oo.. .ooOO@@XXXXXXXXXXXXXXXXXXX",
"XXXXXXXXXXXXXX@@@Oo.   ooOo.  .oOOO@XXXXXXXXXXXXXXXXXXX",
"XXXXXXXXXXXXXX@OOoo.  .ooOo.  .ooOO@XXXXXXXXXXXXXXXXXXX",
"XXXXXXXXXXXXXX@Oo..  .oOOOoo.  .oOO@XXXXXXXXXXXXXXXXXXX",
"XXXXXXXXXXXXXX@Oo..  .oOOOOo.. ..oO@XXXXXXXXXXXXXXXXXXX",
"XXXXXXXXXXXXXX@Oo.. .ooO++Ooo. ..oO@@XXXXXXXXXXXXXXXXXX",
"XXXXXXXXXXXXXX@Oo.. .oOO+++Oo. ..oOO@XXXXXXXXXXXXXXXXXX",
"XXXXXXXXXXXXXX@Oo . .oOO@@+Oo. . oOO@XXXXXXXXXXXXXXXXXX",
"XXXXXXXXXXXXXX@Oo . .ooOO@+Oo. . OOO@XXXXXXXXXXXXXXXXXX",
"XXXXXXXXXXXXXX@Oo . ..ooO@OOo. . OO@@XXXXXXXXXXXXXXXXXX",
"XXXXXXXXXXXXXX@@o .  ..oOOOoo. . OO@XXXXXXXXXXXXXXXXXXX",
"XXXXXXXXXXXXXXX@oo.   .ooooo.. .OOO@XXXXXXXXXXXXXXXXXXX",
"XXXXXXXXXXXXXXX@Oo.   ...oo..  .OO@@XXXXXXXXXXXXXXXXXXX",
"XXXXXXXXXXXXXXX@@o ..   ....  . OO@XXXXXXXXXXXXXXXXXXXX",
"XXXXXXXXXXXXXXXX@O ..        .. O@@XXXXXXXXXXXXXXXXXXXX",
"XXXXXXXXXXXXXXXX@OO   ......   OO@XXXXXXXXXXXXXXXXXXXXX",
"XXXXXXXXXXXXXXXX@@OOOO      OOOO@@XXXXXXXXXXXXXXXXXXXXX",
"XXXXXXXXXXXXXXXXX@@@OOOOOOOOO@@@@XXXXXXXXXXXXXXXXXXXXXX",
"XXXXXXXXXXXXXXXXXXX@@@@@@@@@@@XXXXXXXXXXXXXXXXXXXXXXXXX",
"XXXXXXXXXXXXXXXXXXXXXXXXXXXXXXXXXXXXXXXXXXXXXXXXXXXXXXX",
"XXXXXXXXXXXXXXXXXXXXXXXXXXXXXXXXXXXXXXXXXXXXXXXXXXXXXXX",
"XXXXXXXXXXXXXXXXXXXXXXXXXXXXXXXXXXXXXXXXXXXXXXXXXXXXXXX",
"XXXXXXXXXXXXXXXXXXXXXXXXXXXXXXXXXXXXXXXXXXXXXXXXXXXXXXX"
};
