/* XPM */
static char *_fb8d60515114b2fee22e5146f262069xY0KNtsrvIz8HpwX[] = {
/* columns rows colors chars-per-pixel */
"55 55 10 1 ",
"  c gray13",
". c gray26",
"X c #B00B39",
"o c #B33D5E",
"O c #FFC107",
"+ c #DBAF72",
"@ c #D1718E",
"# c #AED581",
"$ c #FFE0B2",
"% c gray98",
/* pixels */
"#######################################################",
"#######################################################",
"#######################################################",
"#######################################################",
".......................................................",
".......................................................",
".                                                     .",
".                                                     .",
"###                                                 ###",
"######XXXXXXXXXXXXXXXXXXXXXXXXXXXXXXXXXXXXXXXXXXX######",
"######XXXXXXXXXXXXXXXXXXXXXXXXXXXXXXXXXXXXXXXXXXX######",
"######ooooooooooooooooooooooooooooooooooooooooooo######",
"######ooooooooooooooooooooooooooooooooooooooooooo######",
"########ooooooooooooooooooooooooooooooooooooooo########",
"########ooooooooooooooooooooooooooooooooooooooo########",
"#########XXXXXXXX#######       #######XXXXXXXX#########",
"#########XXXXXXXX#######       #######XXXXXXXX#########",
"#########oooooooo#######  OOO  #######oooooooo#########",
"#########oooooooo#######  OOO  #######oooooooo#########",
"#########@@oooooo#######  OOO  #######@@oooooo#########",
"#########@@oooooo#######  OOO  #######@@oooooo#########",
"#########@@oooooo#######       #######@@oooooo#########",
"#########@@oooooo#######       #######@@oooooo#########",
"####@@@@@@@@@@@@@@@@@@@@@@@@@@@@@@@@@@@@@@@@@@@@@@@####",
"####@@@@@@@@@@@@@@@@@@@@@@@@@@@@@@@@@@@@@@@@@@@@@@@####",
"######@@ooooooooooooooooooooooooooooooooooooooooo######",
"######@@ooooooooooooooooooooooooooooooooooooooooo######",
"#########XXXXXXXX#####################XXXXXXXX#########",
"#########XXXXXXXX#####################XXXXXXXX#########",
"#######++$$$$++$$$$++$$$$++$$$$++$$$$++$$$$++$$$#######",
"#######++$$$$++$$$$++$$$$++$$$$++$$$$++$$$$++$$$#######",
"#######$$++$$$$++$$$$++$$$$++$$$$++$$$$++$$$$++$#######",
"#######$$++$$$$++$$$$++$$$$++$$$$++$$$$++$$$$++$#######",
"#########XXXXXXXX####++####++####++###XXXXXXXX#########",
"#########XXXXXXXX####++####++####++###XXXXXXXX#########",
"#########oooooooo##%%####%%####%%#####oooooooo#########",
"#########oooooooo##%%####%%####%%#####oooooooo#########",
"#########oooooooo####%%####%%####%%###oooooooo#########",
"#########@@oooooo####%%####%%####%%###@@oooooo#########",
"#########@@oooooo##%%####%%####%%#####@@oooooo#########",
"#########@@oooooo##%%####%%####%%#####@@oooooo#########",
"#########@@oooooo####%%####%%####%%###@@oooooo#########",
"#########@@oooooo####%%####%%####%%###@@oooooo#########",
"#########@@oooooo##%%####%%####%%#####@@oooooo#########",
"#########@@oooooo##%%####%%####%%#####@@oooooo#########",
"#########@@oooooo#####################@@oooooo#########",
"#########@@oooooo#####################@@oooooo#########",
"#########@@oooooo#####################@@oooooo#########",
"#########@@oooooo#####################@@oooooo#########",
"#########@@oooooo#####################@@oooooo#########",
"#########@@oooooo#####################@@oooooo#########",
"#########        #####################        #########",
"#########        #####################        #########",
"#######            #################            #######",
"#######            #################            #######"
};
