/* XPM */
static char *_9dcfd42dbce4dcfc4727f38463d6033qfoouSEFiWB12poo[] = {
/* columns rows colors chars-per-pixel */
"55 55 20 1 ",
"  c gray13",
". c gray26",
"X c gray38",
"o c #8C0707",
"O c #A80808",
"+ c #B00B39",
"@ c #B33D5E",
"# c #E57373",
"$ c #DBAF72",
"% c #D1718E",
"& c gray56",
"* c gray74",
"= c #EF9A9A",
"- c #AED581",
"; c #FFE0B2",
": c #E3DEE3",
"> c gray88",
", c #E6E6E6",
"< c gray96",
"1 c white",
/* pixels */
"-------------------------------------------------------",
"-------------------------------------------------------",
"-------------------------------------------------------",
"-------------------------------------------------------",
".......................................................",
".......................................................",
".                                                     .",
".                                                     .",
"---                                                 ---",
"------+++++++++++++++++++++++++++++++++++++++++++------",
"------+++++++++X&+++++++++++++++++++++&X+++++++++------",
"------@@@@@@@@XOO&&@@@@@@@@@@@@@@@@@&&OOX@@@@@@@@------",
"------@@@@@@@@XOOOOXX@@@@@@@@@@@@@XXOOOOX@@@@@@@@------",
"--------@@@@@@XO  OOOX@@@@@@@@@@@XOOO  OX@@@@@@--------",
"--------@@@@@@XO # OOOXX@@@@@@@XXOOO # OX@@@@@@--------",
"---------+++++XO ## OOOOXXXXXXXOOOO ## OX+++++---------",
"---------+++++XO ###  ,,**OOO**,,  ### OX+++++---------",
"-----oooo@@@@@XO ===# ,,,,OOO,,,, #=== OX@@@@@oooo-----",
"-----oOOo@@@@@XO === *,,,,OOO,,,,* === OX@@@@@oOOo-----",
"-----oOOO%%@@@XOO = **,,,OOOOO,,,** = OOX@@@@@OOOo-----",
"-----ooOO%%@@@@X*  **,,,OOO,OOO,,,**  *X@@@@@@OOoo-----",
"------oOO%%@@@@X****,,,,OO,,,OO,,,,****X@@@@@@OOo------",
"------ooO%%@@@@X****,,,,OO,,,OO,,,,****X@@@@@@Ooo------",
"----%%%%%%%%%%%%X***,,,,OO,,,OO,,,,***X%%%%%%%%%%%%%---",
"----%%%%%%%%%%%%X***,,,,,OO,OO,,,,,***X%%%%%%%%%%%%%---",
"------%%@@@@@@@@X***   ,,,OOO,,,   ***X@@@@@@@@@@@-----",
"----oo%%@@@@@@@@X***   ,,,,O,,,,   ***X@@@@@@@@@@@o----",
"---ooOOOO+++++++X***  1,,,***,,,1  ***X+++++++OOOOoo---",
"--ooOOOOO++++++&****   ,,*****,,   ****&++++++OOOOOoo--",
"---ooOO$$;;;;$$&*,,,   ,,,***,,,   ,,,*&;;;$$;;;OOoo---",
"----ooO$$;;;;$&*,,,,,,::::   ::::,,,,,,*&;;$$;;;Ooo----",
"-----oO;;$$;;;X*,,,,::11111111111::,,,,*X;;;;$$;Oo-----",
"-----oO;;$$;;;;X,,:::1111111111111:::,,X$;;;;$$;Oo-----",
"-----oOOO+++++++X::::1111111111111::::X+++++++OOOo-----",
"----oooOO++++++++&:::1111111111111:::&++++++++OOooo----",
"--ooOOOoo@@@@@@@@,&:::11111111111:::&,@@@@@@@@ooOOOoo--",
"-oOOOOOOO@@@@@@@@,,&X:11111111111:X&,,@@@@@@@@OOOOOOOo-",
"oOOOOOOOO@@@@@@@@,,,,XXX1111111XXX,,,,@@@@@@@@OOOOOOOOo",
"oOOOOOOOO%%@@@@@@,,,X:::::1111::::X,,,%%@@@@@@OOOOOOOOo",
"oOOOOOOOO%%@@@@@@,,,X:::::1111::::X,,,%%@@@@@@OOOOOOOOo",
"-ooOOOOOO%%@@@@@@***X::::11111::::X***%%@@@@@@OOOOOOoo-",
"---oOOOOO%%@@@@@@XX*X:::1111111:::X*XX%%@@@@@@OOOOOo---",
"----oOOO,%%@@@@@@,,XX*::1111111::*XX,,%%@@@@@@,OOOo----",
"----oOO,,%%@@@@@@,,,X*::1X111X1::*X,,,%%@@@@@@,,OOo----",
"----X**,,%%@@@@@@,,,&**::1X1X1::**&,,,%%@@@@@@,,**X----",
"-----X**,%%@@@@@@,,,&***:11X11:***&,,,%%@@@@@@,**X-----",
"------X**%%@@@@@@,,X****:XXXXX:****X,,%%@@@@@@**X------",
"-------X*%%@@@@@@,,&***<>X,,,X><***&,,%%@@@@@@*X-------",
"--------X%%@@@@@@,,&*OO<<X,,,X<<OO*&,,%%@@@@@@X--------",
"---------%%@@@@@@**&OOOO<X,,,X<OOOO&**%%@@@@@@---------",
"---------%%@@@@@@X&OOOOOOX***XOOOOOO&X%%@@@@@@---------",
"---------        -XOOOOOXXXXXXXOOOOOX-        ---------",
"---------        -XOOOOOX-----XOOOOOX-        ---------",
"-------           XOOOOOX-----XOOOOOX           -------",
"-------            XXXXX-------XXXXX            -------"
};
