/* XPM */
static char *fae673cb6e0d4161d8c317f24caae3a6RciDb1Qg8yS2FhfH[] = {
/* columns rows colors chars-per-pixel */
"55 55 15 1 ",
"  c gray13",
". c gray38",
"X c #8C0707",
"o c #960808",
"O c #A80808",
"+ c #E57373",
"@ c gray56",
"# c gray74",
"$ c #EF9A9A",
"% c #AED581",
"& c #E3DEE3",
"* c gray88",
"= c #E6E6E6",
"- c gray96",
"; c white",
/* pixels */
"%%%%%%%%%%%%%%%%%%%%%%%%%%%%%%%%%%%%%%%%%%%%%%%%%%%%%%%",
"%%%%%%%%%%%%%%%%%%%%%%%%%%%%%%%%%%%%%%%%%%%%%%%%%%%%%%%",
"%%%%%%%%%%%%%%%%%%%%%%%%%%%%%%%%%%%%%%%%%%%%%%%%%%%%%%%",
"%%%%%%%%%%%%%%%%%%%%%%%%%%%%%%%%%%%%%%%%%%%%%%%%%%%%%%%",
"%%%%%%%%%%%%%%%%%%%%%%%%%%%%%%%%%%%%%%%%%%%%%%%%%%%%%%%",
"%%%%%%%%%%%%%%%%%%%%%%%%%%%%%%%%%%%XXXX%%%%%%%%%%%%%%%%",
"%%%%%%%%%%%%%%%%%%%%%%%%%%%XXXX%%%%XoooX%%%%%%%%%%%%%%%",
"%%%%%%%%%%%%%%%%%%%%%%%%%XXooooX%%%XooooXX%%%%%%%%%%%%%",
"%%%%%%%%%%%%%%%%%%%%%%%%XooooooX%%%%XoooooX%%%%%%%%%%%%",
"%%%%%%%%%%%%%%%XX%%%%%%XooooooX%%%%%XoooooXX%%%%%%%%%%%",
"%%%%%%%%%%%%%%XoOX%%%%XooooooooX%%%%XoooooooX%%%%%%%@.%",
"%%%%%%XX%%%%%%XoOXX%%%Xooo......%%%%%XooooooX%%%%%@@OO.",
"%%%%%%XoX%%%%XooOOXX%Xoooo.OOOOO..%%%Xooooo##.%%..OOOO.",
"%%%%%XooXX%%%XooOOOXXXooo.OO OOOOO.%Xoo#######..OOO  O.",
"%%%%%oooOXX%%XooOOOOOXoo#.O +  OOOO..##....##..OOO + O.",
"%%%%XoooOOXX%XoooOOOOX###.O ++$ OOOO...####..OOOO ++ O.",
"%%%%XoooOOOXX%XooOOOOX###.OO +$$ O####OOOO=##==  +++ O.",
"%%%%XoooOOOOOXXoooOO=.####.O +$$$  #===OOO===== +$$$ O.",
"%%%%XoooOOOOOOXoooO===.###.O +$$ #======OOO====# $$$ O.",
"%%%%XoooooOOOOOXoo====.###.OO $ #=======OOOO===## $ OO.",
"%%%%%XooooooOOOO.##====.##.O== ##======OO=OOO===##  #.%",
"%%%%%XoooooooOO==.##===.##..==#=======OO===OO====####.%",
"%XX%%%XooooooO====.##===.##..#========OO===OO====####.%",
"XooXX%%Xooooo#=====.##==.##.==========OO===OO====###.XX",
"XooOOXXXXooo###=====.#===.#.===========OO=OO=====###.oX",
"XooOOOOOOXXX####====.#===...======   ===OOO===   ###.oX",
"XooOOOOOOOOOXX###===.##==..=======   =========   ###.oX",
"XooOOOOOOOOOOO.##====.##=#.=======;  ====###==;  ###.oX",
"XooooOOOOOO====.##===.###.========   ===#####=   ####@%",
"%XooooOOO=======.###==.##.========   ===####==   ===#@%",
"%XoooooO=========.###=.##.============;;;  &&&&======#@",
"%%XooooO#####=====.####.#..=========;;;;;;;;;;;&&====#.",
"%%%Xooo#########===.####.#..=====;;;;;;;;;;;;;;;&&&==.%",
"%%%%XXXXXXXX....####.###.##..=;;;;;;;;;;;;;;;;;;&&&&.%%",
"%%%XXOOOOOOO====...##.###.##...;;;;;;;;;;;;;;;;;&&&@.%%",
"%%XXOOOOOOOO=======..#.##.##.##..;;;;;;;;;;;;;;&&&@XX%%",
"%XXOOOOOOOOO=========.#.##.#........;;;;;;;;;;;&.@OOOX%",
"%XOOOOOOOOO==========.##.#...=OO==####&;;;;;;...OOOOOOX",
"XOOOOOOOOOO==========&.##.==OOO=====####&&&&&.OOOOOOOoX",
"XOOOOOOOOO============#..==OOO=OOOO===##&&&&&.OOOOOoooX",
"XOOOOoooo=============#.==OOO==O==OO==##;&&&&.OOOOooXX%",
"XoOOoooooo######=====##.==OO=======O==##;;&&&.OOOooX%%%",
"XoooooXXXX...#########.===OOO=====OO###;;;&&#.=OOoX%%%%",
"XoooXXXoo####.#######.=====OOOOOOOOO##;;;;&&#.==ooX%%%%",
"XooXooooo#####.######.========OOOO=##;;;;&&##@=###.%%%%",
"%XXXooooo######.#####@=====;;;====###;;;;&###@###.%%%%%",
"%%XooooooO==####.####@====;&;;.===###;;;;&####.#.%%%%%%",
"%%XoooooOOO===###..##@===##&&&.===###;&&.*-###@.%%%%%%%",
"%%XooooOOOOO====###..@===##....==O###...---OO#@%%%%%%%%",
"%%XoooOOOOOXX...#####@=OOO#.**.=OOO#@.##.-OOOO@%%%%%%%%",
"%%XoooOOOXX%%%%%......OOOOO.OO.OOOOO@....OOOOOO@%%%%%%%",
"%%XOOOOOX%%%%%%%%%%%%.OOOOO.OO.OOOOO@%%%%.OOOOO.%%%%%%%",
"%%%XOOOX%%%%%%%%%%%%%%.OOOO..O.OOOOO.%%%%.OOOOO.%%%%%%%",
"%%%%XXX%%%%%%%%%%%%%%%.OOOO.%..OOOOO.%%%%.OOOOO.%%%%%%%",
"%%%%%%%%%%%%%%%%%%%%%%%....%%%%.....%%%%%%.....%%%%%%%%"
};
