/* XPM */
static char *_d21011f26924ca9ccead442187a1662KUX02ZYiuTC5u4Jn[] = {
/* columns rows colors chars-per-pixel */
"55 55 15 1 ",
"  c gray13",
". c gray38",
"X c #8C0707",
"o c #960808",
"O c #A80808",
"+ c #E57373",
"@ c gray56",
"# c gray74",
"$ c #EF9A9A",
"% c #AED581",
"& c #E3DEE3",
"* c gray88",
"= c #E6E6E6",
"- c gray96",
"; c white",
/* pixels */
"%%%%%%%%%%%%%%%%%%%%%%%%%%%%%%%%%%%%%%%%%%%%%%%%%%%%%%%",
"%%%%%%%%%%%%%%%%%%%%%%%%%%%%%%%%%%%%%%%%%%%%%%%%%%%%%%%",
"%%%%%%%%%%%%%%%%%%%%%%%%%%%%%%%%%%%%%%%%%%%%%%%%%%%%%%%",
"%%%%%%%%%%%%%%%%%%%%%%%%%%%%%%%%%%%%%%%%%%%%%%%%%%%%%%%",
"%%%%%%%%%%%%%%%%%%%%%%%%%%%%%%%%%%%%%%%%%%%%%%%%%%%%%%%",
"%%%%%%%%%%%%%%%%%%%%%%%%%%%%%%%%%%%%%%%%%%%%%%%%%%%%%%%",
"%%%%%%%%%%%%%%%%%%%%%%%%%%%%%%%%%%%%%%%%%%%%%%%%%%%%%%%",
"%%%%%%%%%%%%%%%%%%%%%%%%%%%%XX%%%%%%%%%%%%%%%%%%%%%%%%%",
"%%%%%%%%%%%%%%%%%%%%%%%%%%%Xoo%%%%%%%%%%%%%%%%%%%%%%%%%",
"%%%%%%%%%%%%%%%%%%%%%%%%%XXoooX%%%%%%%%%%%%%%%%%%%%%%%%",
"%XXXXX%%%%%%%%%.@%%%%%%XXXooooX%%%%%%%@.%%%%%%%%%%%%%%%",
"%XooooXXX%%%%%.OO@@%%XXoooooooX%%%%%@@OO.%%%%%%XX%%%%%%",
"%XOOoooooX%%%%.OOOO.XoooooooooX%%%..OOOO.%%%%%XoX%%%%%%",
"%%XOOoooooXX%%.O  OOO.ooooooOOX%%.OOO  O.%%%%XXooX%%%%%",
"%%%XOOooooooX%.O + OOO..OOOOOOX..OOO + O.%%%XXOooo%%%%%",
"%%%XOOOoooooX%.O ++ OOOO.......OOOO ++ O.%%XXOOoooX%%%%",
"%%%XOOOooooooX.O +++  ==##OOO##==  +++ O.%XXOOOoooX%%%%",
"%%%XOOOOoooooX.O $$$+ ====OOO==== +$$$ O.XOOOOOoooX%%%%",
"%%%XOO=OOoooo..O $$$ #====OOO====# $$$ O.OOOOOOoooX%%%%",
"%%%.O===Oooo.#.OO $ ##===OOOOO===## $ OO.OOOOoooooX%%%%",
"%%%.O====ooo.##.#  ##===OOO=OOO===##  #.OOOooooooX%%%%%",
"%%%.=====###.##.####====OO===OO====####.OOoooooooX%%%%%",
"%%%.=====###.##.####====OO===OO====####.=OooooooX%%%XX%",
"XXXXX====###.###.###====OO===OO====###.==#oooooX%%XXooX",
"XoOOOX===###.###.###=====OO=OO=====###.===#oooXXXXOOooX",
"XoOOOOXX=###.###.###   ===OOO===   ###.===#oooXOOOOOooX",
"XooOOOOOX###.###.###   ====O====   ###.==###oXOOOOOOooX",
"XoooOOOOOX##.###.###  ;===###===;  ###.=####XOOOOOOOooX",
"%XooOOOOOX##.##@####   ==#####==   ####@###.OOOOOOooooX",
"%XooOOOOOOX#..#@#===   ===###===   ===#@##.===OOOooooX%",
"%.##===OOOO.#.@#======&&&&   &&&&======#@.=====OoooooX%",
"%.##========...#====&&;;;;;;;;;;;&&====#.======OooooX%%",
"%.##=========#..==&&&;;;;;;;;;;;;;&&&==.=======#oooX%%%",
"%%.##=========#..&&&&;;;;;;;;;;;;;&&&&.#======##XXX%%%%",
"%%..##=========##@&&&;;;;;;;;;;;;;&&&@#======###.XXX%%%",
"%%XX.##=========##@&&&;;;;;;;;;;;&&&@#======##..oooXX%%",
"%Xooo.##=========##@.&;;;;;;;;;;;&.@##=====#..ooooooXX%",
"Xooooo.##=========###...;;;;;;;...###==####.#ooooooooX%",
"Xoooooo.###=======##.&&&&&;;;;&&&&.#####...##oooooooooo",
"Xooooooo..####====##.&&&&&;;;;&&&&......#####oooooooooX",
"%XXooooooo...#######.&&&&;;;;;&&&&.###########ooooooooX",
"%%%Xooooo###....####.&&&;;;;;;;&&&...........XooooooooX",
"%%%%Xooo########.....#&&;;;;;;;&&#..========OOXXXoooooX",
"%%%%Xoo#############.#&&;.;;;.;&&#.==========OOOXXXoooX",
"%%%%.===############@##&&;.;.;&&##@==========OOOOOOXooX",
"%%%%%.===###########@###&;;.;;&###@==========OOOOOOXXX%",
"%%%%%%.====########.####&.....&####.=========OOOOOOOX%%",
"%%%%%%%.=====######@###-*.===.*-###@########ooOOOOOOX%%",
"%%%%%%%%...========@#OO--.===.--OO#@#######ooooOOOOOX%%",
"%%%%%%%%%%%..======@OOOO-.===.-OOOO@###...XXooooOOOOX%%",
"%%%%%%%%%%%%%.....@OOOOOO.....OOOOOO@..%%%%%XXoooOOOX%%",
"%%%%%%%%%%%%%%%%%%.OOOOO..%%%..OOOOO.%%%%%%%%%XooooOX%%",
"%%%%%%%%%%%%%%%%%%.OOOOO.%%%%%.OOOOO.%%%%%%%%%%XoooX%%%",
"%%%%%%%%%%%%%%%%%%.OOOOO.%%%%%.OOOOO.%%%%%%%%%%%XXX%%%%",
"%%%%%%%%%%%%%%%%%%%.....%%%%%%%.....%%%%%%%%%%%%%%%%%%%"
};
