/* XPM */
static char *cda35ddd1e37486a9c6993fe93bf1db5q66RfhHXBCIXNcP1[] = {
/* columns rows colors chars-per-pixel */
"55 55 15 1 ",
"  c gray13",
". c gray38",
"X c #8C0707",
"o c #960808",
"O c #A80808",
"+ c #E57373",
"@ c gray56",
"# c gray74",
"$ c #EF9A9A",
"% c #AED581",
"& c #E3DEE3",
"* c gray88",
"= c #E6E6E6",
"- c gray96",
"; c white",
/* pixels */
"%%%%%%%%%%%%%%%%%%%%%%%%%%%%%%%%%%%%%%%%%%%%%%%%%%%%%%%",
"%%%%%%%%%%%%%%%%%%%%%%%%%%%%%%%%%%%%%%%%%%%%%%%%%%%%%%%",
"%%%%%%%%%%%%%%%%%%%%%%%%%%%%%%%%%%%%%%%%%%%%%%%%%%%%%%%",
"%%%%%%%%%%%%%%%%%%%%%%%%%%%%%%%%%%%%%%%%%%%%%%%%%%%%%%%",
"%%%%%%%%%%%%%%%%%%%%%%%%%%%%%%%%%%%%%%%%%%%%%%%%%%%%%%%",
"%%%%%%%%%%%%%%%%XXXX%%%%%%%%%%%%%%%%%%%%%%%%%%%%%%%%%%%",
"%%%%%%%%%%%%%%%XoooX%%%%XXXX%%%%%%%%%%%%%%%%%%%%%%%%%%%",
"%%%%%%%%%%%%%XXooooX%%%XooooXX%%%%%%%%%%%%%%%%%%%%%%%%%",
"%%%%%%%%%%%%XoooooX%%%%XooooooX%%%%%%%%%%%%%%%%%%%%%%%%",
"%%%%%%%%%%%XXoooooX%%%%%XooooooX%%%%%%XX%%%%%%%%%%%%%%%",
"%.@%%%%%%%XoooooooX%%%%XooooooooX%%%%XOoX%%%%%%%%%%%%%%",
".OO@@%%%%%XooooooX%%%%%......oooX%%%XXOoX%%%%%%XX%%%%%%",
".OOOO..%%.##oooooX%%%..OOOOO.ooooX%XXOOooX%%%%XoX%%%%%%",
".O  OOO..#######ooX%.OOOOO OO.oooXXXOOOooX%%%XXooX%%%%%",
".O + OOO..##....##..OOOO  + O.#ooXOOOOOooX%%XXOooo%%%%%",
".O ++ OOOO..####...OOOO $++ O.###XOOOOoooX%XXOOoooX%%%%",
".O +++  ==##=OOOO####O $$+ OO.###XOOOOooX%XXOOOoooX%%%%",
".O $$$+ =====OOO===#  $$$+ O.####.=OOoooXXOOOOOoooX%%%%",
".O $$$ #====OOO======# $$+ O.###.===OoooXOOOOOOoooX%%%%",
".OO $ ##===OOOO=======# $ OO.###.====ooXOOOOOoooooX%%%%",
"%.#  ##===OOO=OO======## ==O.##.====##.OOOOooooooX%%%%%",
"%.####====OO===OO=======#==..##.===##.==OOoooooooX%%%%%",
"%.####====OO===OO========#..##.===##.====OooooooX%%%XX%",
"XX.###====OO===OO==========.##.==##.=====#oooooX%%XXooX",
"Xo.###=====OO=OO===========.#.===#.=====###oooXXXXOOooX",
"Xo.###   ===OOO===   ======...===#.====####XXXOOOOOOooX",
"Xo.###   =========   =======..==##.===###XXOOOOOOOOOooX",
"Xo.###  ;==###====  ;=======.#=##.====##.OOOOOOOOOOOooX",
"%@####   =#####===   ========.###.===##.====OOOOOOooooX",
"%@#===   ==####===   ========.##.==###.=======OOOooooX%",
"@#======&&&&  ;;;============.##.=###.=========OoooooX%",
".#====&&;;;;;;;;;;;=========..#.####.=====#####OooooX%%",
"%.==&&&;;;;;;;;;;;;;;;=====..#.####.===#########oooX%%%",
"%%.&&&&;;;;;;;;;;;;;;;;;;=..##.###.####....XXXXXXXX%%%%",
"%%.@&&&;;;;;;;;;;;;;;;;;...##.###.##...====OOOOOOOXX%%%",
"%%XX@&&&;;;;;;;;;;;;;;..##.##.##.#..=======OOOOOOOOXX%%",
"%XOOO@.&;;;;;;;;;;;........#.##.#.=========OOOOOOOOOXX%",
"XOOOOOO...;;;;;;&####==OO=...#.##.==========OOOOOOOOOX%",
"XoOOOOOOO.&&&&&####=====OOO==.##.&==========OOOOOOOOOOX",
"XoooOOOOO.&&&&&##===OOOO=OOO==..#============OOOOOOOOOX",
"%XXooOOOO.&&&&;##==OO==O==OOO==.#=============ooooOOOOX",
"%%%XooOOO.&&&;;##==O=======OO==.##=====######ooooooOOoX",
"%%%%XoOO=.#&&;;;###OO=====OOO===.#########...XXXXoooooX",
"%%%%Xoo==.#&&;;;;##OOOOOOOOO=====.#######.####ooXXXoooX",
"%%%%.###=@##&&;;;;##=OOOO========.######.#####oooooXooX",
"%%%%%.###@###&;;;;###====;;;=====@#####.######oooooXXX%",
"%%%%%%.#.####&;;;;###===.;;&;====@####.####==OooooooX%%",
"%%%%%%%.@###-*.&&;###===.&&&##===@##..###===OOOoooooX%%",
"%%%%%%%%@#OO---...###O==....##===@..###====OOOOOooooX%%",
"%%%%%%%%@OOOO-.##.@#OOO=.**.#OOO=@#####...XXOOOOOoooX%%",
"%%%%%%%@OOOOOO....@OOOOO.OO.OOOOO......%%%%%XXOOOoooX%%",
"%%%%%%%.OOOOO.%%%%@OOOOO.OO.OOOOO.%%%%%%%%%%%%XOOOOOX%%",
"%%%%%%%.OOOOO.%%%%.OOOOO.O..OOOO.%%%%%%%%%%%%%%XOOOX%%%",
"%%%%%%%.OOOOO.%%%%.OOOOO..%.OOOO.%%%%%%%%%%%%%%%XXX%%%%",
"%%%%%%%%.....%%%%%%.....%%%%....%%%%%%%%%%%%%%%%%%%%%%%"
};
