/* XPM */
static char *_31aa655709b49b2b98861d3cc27aac0IFsvP4RivhdrMmzE[] = {
/* columns rows colors chars-per-pixel */
"55 55 9 1 ",
"  c gray38",
". c #8C0707",
"X c #960808",
"o c #A80808",
"O c gray56",
"+ c gray74",
"@ c #AED581",
"# c #E3DEE3",
"$ c #E6E6E6",
/* pixels */
"@@@@@@@@@@@@@@@@@@@@@@@@@@@@@@@@@@@@@@@@@@@@@@@@@@@@@@@",
"@@@@@@@@@@@@@@@@@@@@@@@@@@@@@@@@@@@@@@@@@@@@@@@@@@@@@@@",
"@@@@@@@@@@@@@@@@@@@@@@@@@@@@@@@@@@@@@@@@@@@@@@@@@@@@@@@",
"@@@@@@@@@@@@@@@@@@@@@@@@@@@@@@@@@@@@@@@@@@@@@@@@@@@@@@@",
"@@@@@@@@@@@@@@@@@@@@@@@@@@@@@@@@@@@@@@@@@@@@@@@@@@@@@@@",
"@@@@@@@@@@@@@@@@@@@@@@@@@@@@@@@@@@@@@@@@@@@@@@@@@@@@@@@",
"@@@@@@@@@@@@@@@@@@@@@@@@@@@@@@@@@@@@@@@@@@@@@@@@@@@@@@@",
"@@@@@@@@@@@@@@@@@@@@@@@@@..@@@@@@@@@@@@@@@@@@@@@@@@@@@@",
"@@@@@@@@@@@@@@@@@@@@@@@@@XX.@@@@@@@@@@@@@@@@@@@@@@@@@@@",
"@@@@@@@@@@@@@@@@@@@@@@@@.XXX..@@@@@@@@@@@@@@@@@@@@@@@@@",
"@@@@@@@@@@@@@@@ O@@@@@@@.XXXX...@@@@@@O @@@@@@@@@.....@",
"@@@@@@..@@@@@@ ooOO@@@@@.XXXXXXX..@@OOoo @@@@@...XXXX.@",
"@@@@@@.X.@@@@@ oooo  @@@.XXXXXXXXX. oooo @@@@.XXXXXoo.@",
"@@@@@.XX..@@@@ oooooo @@.ooXXXXXXXX.oooo @@..XXXXXoo.@@",
"@@@@@XXXo..@@@ ooooooo  .oooooXXXXXX ooo @.XXXXXXoo.@@@",
"@@@@.XXXoo..@@ oooooooo$$.oooooooXX++ oo @.XXXXXooo.@@@",
"@@@@.XXXooo..@ oooooo$$$$$.ooooooo$$++   .XXXXXXooo.@@@",
"@@@@.XXXooooo. ooooo$$$$$$$.ooooo$$$$+++ .XXXXXoooo.@@@",
"@@@@.XXXoooooo.oooo$$$$$$$$$.ooo$$$$$$+++ XXXXoo$oo.@@@",
"@@@@.XXXXXooooo.oo$$$$$$$$$$$.o$$$$$$$$+++ XXXo$$$o @@@",
"@@@@@.XXXXXXoooo +$$$$$$$$$$$$.$$$$$$$$$++ XXX$$$$o @@@",
"@@@@@.XXXXXXXoo$$ ++$$$$$$$$$$ $$$$$$$$$++ +++$$$$$ @@@",
"@..@@@.XXXXXXo$$$$  ++$$$$$$$$ $$$$$$$$$++ +++$$$$$ @@@",
".XX..@@.XXXXX+$$$$$$  ++$$$$$$ $$$$$$$$$++ +++$$$$$ ...",
".XXoo....XXX+++$$$$$$$  +++$$$ $$$$$$$$$++ +++$$$$$ XX.",
".XXoooooo...+++++$$$$$$$   +$$ $$$$$$$$$++ +++$$$$$ XX.",
".XXooooooooo..+++++$$$$$$++ +$ $$$$$$$$$++ +++$$$$$ XX.",
".XXooooooooooo +++++$$$$$$++  $$$$$$$$$$++ +++$$$$$ XX.",
"@.XXXoooooo$$$$   ++++$$$$+++ $$$$$$$$$+++ +++$$$$  X.@",
"@.XXXXooo$$$$$$$$$   +++++++ +$$$$$$$$$++  +++$$$$ XX.@",
"@.XXXXXo$$$$$$$$$$$$$ +++++ ++$$$$$$$$$++ +++$$$$$ ++ @",
"@@.XXXXo+++++++++$$$$$  ++ ++$$$$$$$$$++  +++$$$$  ++ @",
"@@@.XXX++++++++++++$$$$$  ++$$$$$$$$$+++ +++$$$$$ +++ @",
"@@@@........    +++++$$$ +++$$$$$$$$+++  +++$$$$  ++ @@",
"@@@..ooooooo$$$$   ++++$ +++$$$$$$$$+++ ++++$$$ ..++ @@",
"@@..oooooooo$$$$$$   +++ +++$$$$$$$++++ +++$$$ ooo...@@",
"@..ooooooooo$$$$$$$$  ++ +++$$$$$+++++ +++$$$ ooooooo.@",
"@.ooooooooo$$$$$$$$$$ ++ ++++$$$+++++ ++++$ oooooooooo.",
".oooooooooo$$$$$$$$$$#   ++++++++++  ++++$  oooooooooX.",
".ooooooooo$$$$$$$$$$$$$$  +++++++  +++++   $oooooooXXX.",
".ooooXXXX$$$$$$$$$$$$$$$+  +++++  +++++  $$$$oooooXX..@",
".XooXXXXXX++++$$$$$$$$$$$+  +++         $$$$$$oooXX.@@@",
".XXXXX....   +++$$$$$$$$$+++    +$$$$$$$$$$$$$$ooX.@@@@",
".XXX...XX++++  ++$$$$$$$++++++ ++$$$$$$$$$$$$$$$XX.@@@@",
".XX.XXXXX+++++  +++$$$$$++++++ ++$$$$$$$$$$$$$$+++ @@@@",
"@...XXXXX++++++  ++++++++++++  +++$$$$$$$$$$$$+++ @@@@@",
"@@.XXXXXXo$$++++ ++++++++++++ ++++++$$$$$$++++++ @@@@@@",
"@@.XXXXXooo$$$+++  ++++++++++ +++++++++++++++++ @@@@@@@",
"@@.XXXXooooo$$$$+++    ++++++ ++++++++++++++   @@@@@@@@",
"@@.XXXooooo..   ++++++         +++++++++++  @@@@@@@@@@@",
"@@.XXXooo..@@@@@             @            @@@@@@@@@@@@@",
"@@.ooooo.@@@@@@@@@ oooo  @@@@@  oooo @@@@@@@@@@@@@@@@@@",
"@@@.ooo.@@@@@@@@@@ ooooo @@@@@ ooooo @@@@@@@@@@@@@@@@@@",
"@@@@...@@@@@@@@@@@ ooooo @@@@@ ooooo @@@@@@@@@@@@@@@@@@",
"@@@@@@@@@@@@@@@@@@@     @@@@@@@     @@@@@@@@@@@@@@@@@@@"
};
