/* XPM */
static char *b25149053983471384a766ebd2d0df8aRX8vDlYr8mF2BFcW[] = {
/* columns rows colors chars-per-pixel */
"165 30 14 1 ",
"  c #3B0C14",
". c #4E342E",
"X c #6D4C41",
"o c #8C0707",
"O c #A80808",
"+ c #8F5643",
"@ c #994974",
"# c yellow",
"$ c #DBAF72",
"% c #FFD54F",
"& c #E683A5",
"* c #AED581",
"= c #DE9BCC",
"- c #F8BBD0",
/* pixels */
"%%%%%%%%%=======-------===----=-----XX**********************XXX-=======-------===----=-----XX**********************XXX-=======-------===----=-----XX********%%%%%%%%%",
"%%%%%%%%%-====&=----------------------XXX******************XX----====&=----------------------XXX******************XX----====&=----------------------XXX*****%%%%%%%%%",
"%%%%%%%%%-==&&&=----@@------------==----XX****************XX--@@-==&&&=----@@------------==----XX****************XX--@@-==&&&=----@@------------==----XX****%%%%%%%%%",
"**%%%%%-@==&=---@---@-----------=========X***************XX----@==&=---@---@-----------=========X***************XX----@==&=---@---@-----------=========X******%%%%%**",
"X       OOOOOOOOOOOOOOOOOOOOOOOOOOOOOOOOOOOOOOOOOOOOOOOOOOOOOOOOOOOOOOOOOOOOOOOOOOOOOOOOOOOOOOOOOOOOOOOOOOOOOOOOOOOOOOOOOOOOOOOOOOOOOOOOOOOOOOOOOOOOOOOOOOOOO       *",
"X OOOOO #ooo###ooo#######oo###oo#ooo###ooo#######oo###oo#ooo###ooo#######oo###oo##ooo###ooo#######oo###oo#ooo###ooo#######oo###oo#ooo###ooo#######oo###oo#ooo OOOOO X",
"= OOOOO #ooooooooo#oo#oo#ooooooo#ooooooooo#oo#oo#ooooooo#ooooooooo#oo#oo#ooooooo##ooooooooo#oo#oo#ooooooo#ooooooooo#oo#oo#ooooooo#ooooooooo#oo#oo#ooooooo#ooo OOOOO =",
"= OOOOO #ooo###ooo#######oo###oo#ooo###ooo#######oo###oo#ooo###ooo#######oo###oo##ooo###ooo#######oo###oo#ooo###ooo#######oo###oo#ooo###ooo#######oo###oo#ooo OOOOO &",
"& OOOOO ooooooooooooooooooooooooooooooooooooooooooooooooooooooooooooooooooooooooooooooooooooooooooooooooooooooooooooooooooooooooooooooooooooooooooooooooooooo OOOOO &",
"& OOOOO ooooooooooooooooooooooooooooooooooooooooooooooooooooooooooooooooooooooooooooooooooooooooooooooooooooooooooooooooooooooooooooooooooooooooooooooooooooo OOOOO &",
"= OOOOO $$$$$$$$$$$$$$$$$$$$$$$$$$$$$$$$$$$$$$$$$$$$$$$$$$$$$$$$$$$$$$$$$$$$$$$$$$$$$$$$$$$$$$$$$$$$$$$$$$$$$$$$$$$$$$$$$$$$$$$$$$$$$$$$$$$$$$$$$$$$$$$$$$$$$ OOOOO =",
"= OOOOO $$$$$$$$$$$$$$$$$$$$$$$$$$$$$$$$$$$$$$$$$$$$$$$$$$$$$$$$$$$$$$$$$$$$$$$$$$$$$$$$$$$$$$$$$$$$$$$$$$$$$$$$$$$$$$$$$$$$$$$$$$$$$$$$$$$$$$$$$$$$$$$$$$$$$ OOOOO X",
"X OOOOO $$$$$$$$$$$$$$$$$$$$$$$$$$$$$$$$$$$$$$$$$$$$$$$$$$$$$$$$$$$$$$$$$$$$$$$$$$$$$$$$$$$$$$$$$$$$$$$$$$$$$$$$$$$$$$$$$$$$$$$$$$$$$$$$$$$$$$$$$$$$$$$$$$$$$ OOOOO X",
"X OOOOO $$$$$$$$$$$$$$$$$$$$$$$$$$$$$$$$$$$$$$$$$$$$$$$$$$$$$$$$$$$$$$$$$$$$$$$$$$$$$$$$$$$$$$$$$$$$$$$$$$$$$$$$$$$$$$$$$$$$$$$$$$$$$$$$$$$$$$$$$$$$$$$$$$$$$ OOOOO *",
"X OOOOO $$$$$$$$$$$$$$$$$$$$$$$$$$$$$$$$$$$$$$$$$$$$$$$$$$$$$$$$$$$$$$$$$$$$$$$$$$$$$$$$$$$$$$$$$$$$$$$$$$$$$$$$$$$$$$$$$$$$$$$$$$$$$$$$$$$$$$$$$$$$$$$$$$$$$ OOOOO *",
"= OOOOO $$$$$$$$$$$$$$$$$$$$$$$$$$$$$$$$$$$$$$$$$$$$$$$$$$$$$$$$$$$$$$$$$$$$$$$$$$$$$$$$$$$$$$$$$$$$$$$$$$$$$$$$$$$$$$$$$$$$$$$$$$$$$$$$$$$$$$$$$$$$$$$$$$$$$ OOOOO X",
"= OOOOO $$$$$$$$$$$$$$$$$$$$$$$$$$$$$$$$$$$$$$$$$$$$$$$$$$$$$$$$$$$$$$$$$$$$$$$$$$$$$$$$$$$$$$$$$$$$$$$$$$$$$$$$$$$$$$$$$$$$$$$$$$$$$$$$$$$$$$$$$$$$$$$$$$$$$ OOOOO X",
"= OOOOO $$$$$$$$$$$$$$$$$$$$$$$$$$$$$$$$$$$$$$$$$$$$$$$$$$$$$$$$$$$$$$$$$$$$$$$$$$$$$$$$$$$$$$$$$$$$$$$$$$$$$$$$$$$$$$$$$$$$$$$$$$$$$$$$$$$$$$$$$$$$$$$$$$$$$ OOOOO =",
"= OOOOO $$$$$$$$$$$$$$$$$$$$$$$$$$$$$$$$$$$$$$$$$$$$$$$$$$$$$$$$$$$$$$$$$$$$$$$$$$$$$$$$$$$$$$$$$$$$$$$$$$$$$$$$$$$$$$$$$$$$$$$$$$$$$$$$$$$$$$$$$$$$$$$$$$$$$ OOOOO =",
"= OOOOO $$$$$$$$$$$$$$$$$$$$$$$$$$$$$$$$$$$$$$$$$$$$$$$$$$$$$$$$$$$$$$$$$$$$$$$$$$$$$$$$$$$$$$$$$$$$$$$$$$$$$$$$$$$$$$$$$$$$$$$$$$$$$$$$$$$$$$$$$$$$$$$$$$$$$ OOOOO &",
"= OOOOO ooooooooooooooooooooooooooooooooooooooooooooooooooooooooooooooooooooooooooooooooooooooooooooooooooooooooooooooooooooooooooooooooooooooooooooooooooooo OOOOO &",
"& OOOOO ooooooooooooooooooooooooooooooooooooooooooooooooooooooooooooooooooooooooooooooooooooooooooooooooooooooooooooooooooooooooooooooooooooooooooooooooooooo OOOOO &",
"@ OOOOO #ooo###ooo#######oo###oo#ooo###ooo#######oo###oo#ooo###ooo#######oo###oo##ooo###ooo#######oo###oo#ooo###ooo#######oo###oo#ooo###ooo#######oo###oo#ooo OOOOO &",
"& OOOOO #ooooooooo#oo#oo#ooooooo#ooooooooo#oo#oo#ooooooo#ooooooooo#oo#oo#ooooooo##ooooooooo#oo#oo#ooooooo#ooooooooo#oo#oo#ooooooo#ooooooooo#oo#oo#ooooooo#ooo OOOOO @",
"@ OOOOO #ooo###ooo#######oo###oo#ooo###ooo#######oo###oo#ooo###ooo#######oo###oo##ooo###ooo#######oo###oo#ooo###ooo#######oo###oo#ooo###ooo#######oo###oo#ooo OOOOO @",
"X       OOOOOOOOOOOOOOOOOOOOOOOOOOOOOOOOOOOOOOOOOOOOOOOOOOOOOOOOOOOOOOOOOOOOOOOOOOOOOOOOOOOOOOOOOOOOOOOOOOOOOOOOOOOOOOOOOOOOOOOOOOOOOOOOOOOOOOOOOOOOOOOOOOOOO       X",
"X@%%%%%&&&&@@@@========@&&&&&&&&&&&@@@XX*&*************X@@@@&&&&&&@@@@========@&&&&&&&&&&&@@@XX*&*************X@@@@&&&&&&@@@@========@&&&&&&&&&&&@@@*X*&******%%%%%**",
"X@%%%%%&&&&@&&&@@&&&&&&&@&&&&&&&&&@@XX*****************X@&&&&&&&&&@&&&@@&&&&&&&@&&&&&&&&&@@XX*****************X@&&&&&&&&&@&&&@@&&&&&&&@&&&&&&&&&@@XX********%%%%%%%%%",
"%%%%%%%%%&@@@@&&&@&&.&&&@&&&&&&&@@XX*******************X@@&&&&&&&@@@@&&&@&&.&&&@&&&&&&&@@XX*******************X@@&&&&&&&@@@@&&&@&&.&&&@&&&&&&&@@XX**********%%%%%%%%%",
"%%%%%%%%%@XXX@X&&&@+.+@@&@@@&&&@XX******************&**XX@@@&&&@@XXX@X&&&@+.+@@&@@@&&&@XX******************&**XX@@@&&&@@XXX@X&&&@+.+@@&@@@&&&@XX************%%%%%%%%%"
};
