/* XPM */
static char *cc49d6e736ab430ad0e15ab1879007c5RTg7NrYV5PZgAIGs[] = {
/* columns rows colors chars-per-pixel */
"55 55 12 1 ",
"  c black",
". c #4E342E",
"X c #6D4C41",
"o c #795548",
"O c #8F5643",
"+ c #994974",
"@ c #8D6E63",
"# c #D99882",
"$ c #E683A5",
"% c #AED581",
"& c #DE9BCC",
"* c #F8BBD0",
/* pixels */
"%%%%%%%%%%%%%%%%%%%%%%%%%%%%%%%%%%%%%%%%%%%%%%%%%%%%%%%",
"%%%%%%%%%%%%%%%%%%%%%%%%%%%%%%%%%%%%%%%%%%%%%%%%%%%%%%%",
"%%%%%%%%%%%%%%%%%%%%%%%%%%%%%%%%%%%%%%%%%%%%%%%%%%%%%%%",
"%%%%%%%%%%%%%%%%%%%%%%%%%%XXX%%%%%%%%%%%%%%%%%%%%%%%%%%",
"%%%%%%%%%%%%%%%%%%%%%%%%XXX*XXXX%%%%%%%%%%%%%%%%%%%%%%%",
"%%%%%%%%%%%%%%%%%%%%XXXXX******XXX%%%%%%%%%%%%%%%%%%%%%",
"%%%%%%%%%%%%%%%%%%%X**************XX%%%%%%%%%%%%%%%%%%%",
"%%%%%%%%%%%%%%%%%%X*******&&&*******X%%%%%%%%%%%%%%%%%%",
"%%%%%%%%%%%%%%%%%X******************XXXXXX%%%%%%%%%%%%%",
"%%%%%%%%%%%%%%%%%X************&&&*********XXXX%%%%%%%%%",
"%%%%%%%%%%%%%%XXX*&&&&&&&*******&&&****&*****XX%%%%%%%%",
"%%%%%%%%%%%%%XX****&&&&$&**********************XXX%%%%%",
"%%%%%%%%%%%%XX**++*&&$$$&****++************&&****XX%%%%",
"%%%%%%%%%%%XX****+&&$&***+***+***********&&&&&&&&&X%%%%",
"%%%%%%%%%XXX******++$&&**++****&********&&&&&&&&&&X%%%%",
"%%%%%%%XXX********&$$$&*******&&***$*&&&&&&&&&&&&X%%%%%",
"%%%%%%XX&&&&*****&&$$$&&****+*&&&&&$$$+&&&&&$$XXXX%%%%%",
"%%%%%%X$$&&&&&***&&$$$$&&&&*&++&&&&$$++&&$$$$$XX%%%%%%%",
"%%%%%%X$$$&&&&&&&&$$$&&&&&****&&&+&$+$$$$$$$$$X%%%%%%%%",
"%%%%%%X&$$$&&&&&&$$$&&*&&&*****&*$++$$$$$$$$$$X%%%%%%%%",
"%%%%%%%X&&$$$$&&$$$&&&**$$*******$$$$$$$$$$$$X%%%%%%%%%",
"%%%%%%%XX&&&$$$&$$$&&***$$$$$***$$$$$$$$$$**X%%%%%%%%%%",
"%%%%%%%%XX&&&&$$$$&&&****$$$$********$$******XXX%%%%%%%",
"%%%%%%%%%X&&&&$$$&&*****&&***********$$$*******XXXX%%%%",
"%%%%%%%%%X&***$+&&&****&++********$$$$$$&&&*****++XX%%%",
"%%%%%%%%X&&***$$++&&&&&+**********$$$$$$&&&******++X%%%",
"%%%%%%%XX&&***$$$$&&&+****$$$&&*$$$$$$$$++&&&&&&&&++X%%",
"%%%%%XXX&&&***$$$$$++****$$&&**&&*+&&$$$$$+++++&&&&+X%%",
"%%%%%X$&&&&***$$$$$****$++++&&&*&***&&&&$$$++$++++&+XX%",
"%%%%%X$$$&&&&*&$$&&&*$$$$$*+++&&&&*+&&&&&&&$$$$$$++++X%",
"%%%%%X$$$&&&&&&$$&&&$$******+++*&&&&+&*++&&$$$$$$$$$+X%",
"%%%%XX$$$$&+++&$$&&&$*******+++&&&&&&&*&&&&&&&$$$$$+X%%",
"%%%%X++$$+++$$$$$++&&&&*******++*+&&&&&&&&&&&$$$$+++X%%",
"%%%%XX+++$$$$$$$$$+++&&&*******+++&$$$+++$$$$$$$++XX%%%",
"%%%%%%XX++$$$$$$$$$$$+&&&*******+$$+++$$+$$$$$$$+XX%%%%",
"%%%%%%%%XX+$$$$$$$$$++&&&&&&&$$$$++$$$$$$$$$$$++X%%%%%%",
"%%%%%%%%%X++++$$$$$$++++&&&&&&&&+$$$$$$$$$$$+++XX%$%%%%",
"%%%%%%%%%X+$$$$$$$$$+$$$++$$$$$$$+$$$$$$$$$++XX%%%%%%%%",
"%%%%%%%%%X++$$$$$$$++++$$$+$$.$$$+$$$$$$$++XX%%%%%%%%%%",
"%%%%%%$%%XX+++$$$++XXX+X$$$+O.O++$+++$$$+XX%%%%%%%%%%%%",
"%%%%%%%%%%%XX++++++X%% XXo.#  O#+XXX++++X%%%%$%%$%%%%%%",
"%%%%%%%%%%%%XX+++++X%% .X..O# #O %%XXXXX%%%%%%%%%%%%%%%",
"%%%%%%%%%%%+%%%XXXX%%% .XXOXO..O %$%%%%%%%%$%%%%%%%%%%%",
"%%%%%%%%%%%%%%%%%%%$%% .XXO.OO.. %%%%%%%%%%%%%%%%%$%%%%",
"%%%%%%%%$%%%%%%%%%%%%%  .XOX.O@. %%%%+%$%%%%%%%%%%%%%%%",
"%%%%%%%%%%%%%%%$%%%%%% ..XXO..@O %%%%%%%%$%%%$%%%%%%%%%",
"%%%%%%%%%%%%%%%%%%%%%% .OX.OO.@O %%$%%%%%%%%%%%%%%%%%%%",
"%%%%%%%%%%%%$%%%%%$%% X.OO.OO.@O %%%%%%%%%%%%+%%%%%%%%%",
"%%%%%%%%%%%%%%%%%%%%% XXOO..O.OOO %%%%%%$%%%%%%%%%%%%%%",
"%%%%%%%+%%%%%%%+%%%%  XOOO..O..OO %%%%%%%%%%%%%%$%%%%%%",
"%%%%%%%%%%%%%%%%%%%% #OO.. ##X..## %%$%%%%%%%%%%%%%%%%%",
"%%%%%%%%$%%$%%%%%%% OO...  #XXX.o# %%%%%$%%%%%%%%%%%%%%",
"%%%%%%%%%%%%%%%%%%% X..X XX.#oo ..# %%%%%%$%%%%%%%%%%%%",
"%%%%%%%%%%%%%%     #X.X  X  .. X X#        %%%%%%%%%%%%",
"%%%%%%%%%%%%%%%%%%%%%%%%%%%%%%%%%%%%%%%%%%%%%%%%%%%%%%%"
};
